<?xml version="1.0" encoding="UTF-8"?>
<svg width="128px" height="140px" viewBox="0 0 128 140" version="1.1" xmlns="http://www.w3.org/2000/svg" xmlns:xlink="http://www.w3.org/1999/xlink">
    <!-- Generator: Sketch 49.3 (51167) - http://www.bohemiancoding.com/sketch -->
    <title>Roboto-a-lowercase</title>
    <desc>Created with Sketch.</desc>
    <defs></defs>
    <g id="Roboto-a-lowercase" stroke="none" stroke-width="1" fill="none" fill-rule="evenodd">
        <path d="M75.6870853,107 C74.9123418,105.48925 74.3506612,103.610526 74.0020267,101.36377 C69.9346235,105.896019 64.6470787,108.162109 58.1392337,108.162109 C51.9800232,108.162109 46.8764773,106.380226 42.8284427,102.816406 C38.7804081,99.2525863 36.7564212,94.7591417 36.7564212,89.3359375 C36.7564212,82.6731438 39.2258789,77.5599137 44.1648685,73.9960938 C49.103858,70.4322738 56.2410751,68.6310223 65.5767337,68.5922852 L73.3047611,68.5922852 L73.3047611,64.9897461 C73.3047611,62.0844581 72.5590817,59.7602626 71.0677005,58.0170898 C69.5763194,56.2739171 67.2230714,55.4023438 64.0078861,55.4023438 C61.1800724,55.4023438 58.9624026,56.0802341 57.3548099,57.4360352 C55.7472172,58.7918362 54.9434329,60.6511926 54.9434329,63.0141602 L38.1509525,63.0141602 C38.1509525,59.3728659 39.2743136,56.0027824 41.5210696,52.9038086 C43.7678257,49.8048348 46.9442262,47.3741136 51.0503665,45.6115723 C55.1565068,43.8490309 59.7661613,42.9677734 64.8794681,42.9677734 C72.6269027,42.9677734 78.7763366,44.9142872 83.3279544,48.807373 C87.8795722,52.7004589 90.155347,58.1720025 90.155347,65.222168 L90.155347,92.4736328 C90.1940842,98.4391574 91.0269209,102.95197 92.6538821,106.012207 L92.6538821,107 L75.6870853,107 Z M61.7998782,95.3208008 C64.2790573,95.3208008 66.5645162,94.7688043 68.6563236,93.6647949 C70.7481309,92.5607855 72.2975946,91.0791109 73.3047611,89.2197266 L73.3047611,78.4121094 L67.0293704,78.4121094 C58.6234039,78.4121094 54.1493276,81.3173538 53.6070071,87.1279297 L53.5489017,88.1157227 C53.5489017,90.20753 54.2848969,91.9313083 55.7569095,93.2871094 C57.2289221,94.6429104 59.2432248,95.3208008 61.7998782,95.3208008 Z" id="a" stroke="#404040"></path>
    </g>
</svg>