<?xml version="1.0" encoding="UTF-8"?>
<svg width="128px" height="140px" viewBox="0 0 128 140" version="1.1" xmlns="http://www.w3.org/2000/svg" xmlns:xlink="http://www.w3.org/1999/xlink">
    <!-- Generator: Sketch 49.3 (51167) - http://www.bohemiancoding.com/sketch -->
    <title>Roboto-e-lowercase</title>
    <desc>Created with Sketch.</desc>
    <defs></defs>
    <g id="Roboto-e-lowercase" stroke="none" stroke-width="1" fill="none" fill-rule="evenodd">
        <path d="M67.9300052,108.162109 C58.7105581,108.162109 51.2053434,105.334338 45.4141361,99.6787109 C39.6229287,94.0230837 36.7273685,86.4888166 36.7273685,77.0756836 L36.7273685,75.4487305 C36.7273685,69.1345713 37.9475711,63.488713 40.388013,58.5109863 C42.8284549,53.5332596 46.2856957,49.698337 50.7598392,47.0061035 C55.2339826,44.31387 60.3375286,42.9677734 66.0706302,42.9677734 C74.6702826,42.9677734 81.439502,45.6793349 86.3784915,51.1025391 C91.3174811,56.5257433 93.7869388,64.2149567 93.7869388,74.1704102 L93.7869388,81.0268555 L53.7522708,81.0268555 C54.2945912,85.1329958 55.9312122,88.4256061 58.6621829,90.9047852 C61.3931536,93.3839642 64.8503944,94.6235352 69.0340091,94.6235352 C75.503117,94.6235352 80.5582422,92.2799714 84.1995364,87.5927734 L92.450513,96.831543 C89.9325968,100.395363 86.5237767,103.174713 82.2239505,105.169678 C77.9241243,107.164642 73.1595235,108.162109 67.9300052,108.162109 Z M66.0125247,56.5644531 C62.6811279,56.5644531 59.9792506,57.6878143 57.9068118,59.9345703 C55.8343731,62.1813263 54.5076448,65.3964635 53.9265872,69.5800781 L77.2849857,69.5800781 L77.2849857,68.2436523 C77.2075113,64.5248838 76.2003599,61.6486918 74.2635013,59.6149902 C72.3266426,57.5812887 69.5763446,56.5644531 66.0125247,56.5644531 Z" id="e" stroke="#404040"></path>
    </g>
</svg>