<?xml version="1.0" encoding="UTF-8"?>
<svg width="128px" height="140px" viewBox="0 0 128 140" version="1.1" xmlns="http://www.w3.org/2000/svg" xmlns:xlink="http://www.w3.org/1999/xlink">
    <!-- Generator: Sketch 49.3 (51167) - http://www.bohemiancoding.com/sketch -->
    <title>Roboto-D</title>
    <desc>Created with Sketch.</desc>
    <defs></defs>
    <g id="Roboto-D" stroke="none" stroke-width="1" fill="none" fill-rule="evenodd">
        <path d="M33.5896732,107 L33.5896732,22.3984375 L59.6209232,22.3984375 C67.0584603,22.3984375 73.71147,24.0737951 79.5801517,27.4245605 C85.4488334,30.775326 90.0294353,35.5399268 93.322095,41.7185059 C96.6147547,47.8970849 98.2610599,54.9180922 98.2610599,62.7817383 L98.2610599,66.6748047 C98.2610599,74.5384508 96.6438072,81.5304056 93.4092532,87.6508789 C90.1746993,93.7713522 85.6134656,98.5165847 79.7254153,101.886719 C73.8373651,105.256853 67.1940396,106.961263 59.7952396,107 L33.5896732,107 Z M51.0213138,36.5180664 L51.0213138,92.996582 L59.4466068,92.996582 C66.2643492,92.996582 71.4744208,90.769228 75.0769778,86.3144531 C78.6795349,81.8596782 80.519523,75.4875089 80.5969974,67.1977539 L80.5969974,62.7236328 C80.5969974,54.1239804 78.8151142,47.6065489 75.2512943,43.1711426 C71.6874744,38.7357363 66.4774028,36.5180664 59.6209232,36.5180664 L51.0213138,36.5180664 Z" id="D" stroke="#404040"></path>
    </g>
</svg>