<?xml version="1.0" encoding="UTF-8"?>
<svg width="128px" height="140px" viewBox="0 0 128 140" version="1.1" xmlns="http://www.w3.org/2000/svg" xmlns:xlink="http://www.w3.org/1999/xlink">
    <!-- Generator: Sketch 49.3 (51167) - http://www.bohemiancoding.com/sketch -->
    <title>Roboto-o-lowercase</title>
    <desc>Created with Sketch.</desc>
    <defs></defs>
    <g id="Roboto-o-lowercase" stroke="none" stroke-width="1" fill="none" fill-rule="evenodd">
        <path d="M34.8970462,74.9838867 C34.8970462,68.7472019 36.0978806,63.188501 38.4995853,58.3076172 C40.90129,53.4267334 44.3585308,49.6499157 48.8714114,46.9770508 C53.3842921,44.3041859 58.6234161,42.9677734 64.5889407,42.9677734 C73.0723816,42.9677734 79.9965474,45.5631251 85.3616458,50.7539062 C90.7267443,55.9446874 93.719146,62.9947471 94.3389407,71.9042969 L94.4551517,76.2041016 C94.4551517,85.8496576 91.7629585,93.5872918 86.3784915,99.4172363 C80.9940245,105.247181 73.7696501,108.162109 64.7051517,108.162109 C55.6406532,108.162109 48.4065947,105.256865 43.0027591,99.4462891 C37.5989235,93.6357131 34.8970462,85.7334484 34.8970462,75.7392578 L34.8970462,74.9838867 Z M51.6895267,76.2041016 C51.6895267,82.1696262 52.8128878,86.7308599 55.0596439,89.8879395 C57.3063999,93.045019 60.521537,94.6235352 64.7051517,94.6235352 C68.7725548,94.6235352 71.9489554,93.0643873 74.2344486,89.9460449 C76.5199418,86.8277025 77.6626712,81.8403663 77.6626712,74.9838867 C77.6626712,69.1345736 76.5199418,64.6023924 74.2344486,61.387207 C71.9489554,58.1720217 68.7338182,56.5644531 64.5889407,56.5644531 C60.4828004,56.5644531 57.3063999,58.1623375 55.0596439,61.3581543 C52.8128878,64.5539711 51.6895267,69.5025707 51.6895267,76.2041016 Z" id="o" stroke="#404040"></path>
    </g>
</svg>