<?xml version="1.0" encoding="UTF-8"?>
<svg width="128px" height="140px" viewBox="0 0 128 140" version="1.1" xmlns="http://www.w3.org/2000/svg" xmlns:xlink="http://www.w3.org/1999/xlink">
    <!-- Generator: Sketch 49.3 (51167) - http://www.bohemiancoding.com/sketch -->
    <title>Roboto-p-lowercase</title>
    <desc>Created with Sketch.</desc>
    <defs></defs>
    <g id="Roboto-p-lowercase" stroke="none" stroke-width="1" fill="none" fill-rule="evenodd">
        <path d="M94.2517825,76.1459961 C94.2517825,85.8302893 92.053481,93.5872918 87.6568118,99.4172363 C83.2601427,105.247181 77.32376,108.162109 69.8474857,108.162109 C63.4945893,108.162109 58.3619909,105.954124 54.4495364,101.538086 L54.4495364,131.171875 L37.657056,131.171875 L37.657056,44.1298828 L53.2293216,44.1298828 L53.8103763,50.2890625 C57.8777794,45.4081787 63.1846925,42.9677734 69.7312747,42.9677734 C77.4787093,42.9677734 83.5022493,45.8342812 87.8020755,51.5673828 C92.1019017,57.3004844 94.2517825,65.2027491 94.2517825,75.2744141 L94.2517825,76.1459961 Z M77.4593021,74.9257812 C77.4593021,69.0764681 76.4230982,64.5636552 74.3506595,61.387207 C72.2782207,58.2107589 69.2664507,56.6225586 65.3152591,56.6225586 C60.0470036,56.6225586 56.4251323,58.6368614 54.4495364,62.6655273 L54.4495364,88.40625 C56.5026066,92.5511275 60.1632145,94.6235352 65.43147,94.6235352 C73.4500648,94.6235352 77.4593021,88.0576828 77.4593021,74.9257812 Z" id="p" stroke="#404040"></path>
    </g>
</svg>